<mxfile host="app.diagrams.net" modified="2021-09-28T02:20:49.665Z" agent="5.0 (Macintosh; Intel Mac OS X 10_15_6) AppleWebKit/537.36 (KHTML, like Gecko) Chrome/93.0.4577.63 Safari/537.36" etag="H4bTFuJbNZdi4NpstQJv" version="15.3.4" type="github">
  <diagram id="TWiHrpcFwOdGz3wL10nc" name="Page-1">
    <mxGraphModel dx="2066" dy="1131" grid="1" gridSize="10" guides="1" tooltips="1" connect="1" arrows="1" fold="1" page="1" pageScale="1" pageWidth="827" pageHeight="1169" math="0" shadow="0">
      <root>
        <mxCell id="0" />
        <mxCell id="1" parent="0" />
        <mxCell id="Qmrg40c5jwhxQXg3GHlc-8" value="" style="edgeStyle=none;curved=1;rounded=0;orthogonalLoop=1;jettySize=auto;html=1;endArrow=open;startSize=14;endSize=14;sourcePerimeterSpacing=8;targetPerimeterSpacing=8;" edge="1" parent="1" source="Qmrg40c5jwhxQXg3GHlc-1" target="Qmrg40c5jwhxQXg3GHlc-3">
          <mxGeometry relative="1" as="geometry" />
        </mxCell>
        <mxCell id="Qmrg40c5jwhxQXg3GHlc-1" value="需求评审" style="rounded=1;whiteSpace=wrap;html=1;hachureGap=4;pointerEvents=0;fillColor=#fff2cc;strokeColor=#d6b656;" vertex="1" parent="1">
          <mxGeometry x="200" y="160" width="200" height="80" as="geometry" />
        </mxCell>
        <mxCell id="Qmrg40c5jwhxQXg3GHlc-9" value="" style="edgeStyle=none;curved=1;rounded=0;orthogonalLoop=1;jettySize=auto;html=1;endArrow=open;startSize=14;endSize=14;sourcePerimeterSpacing=8;targetPerimeterSpacing=8;" edge="1" parent="1" source="Qmrg40c5jwhxQXg3GHlc-3" target="Qmrg40c5jwhxQXg3GHlc-6">
          <mxGeometry relative="1" as="geometry" />
        </mxCell>
        <mxCell id="Qmrg40c5jwhxQXg3GHlc-3" value="用例评审&lt;br&gt;贴合业务模型" style="rounded=1;whiteSpace=wrap;html=1;hachureGap=4;pointerEvents=0;fillColor=#fff2cc;strokeColor=#d6b656;" vertex="1" parent="1">
          <mxGeometry x="200" y="280" width="200" height="80" as="geometry" />
        </mxCell>
        <mxCell id="Qmrg40c5jwhxQXg3GHlc-11" value="" style="edgeStyle=none;curved=1;rounded=0;orthogonalLoop=1;jettySize=auto;html=1;endArrow=open;startSize=14;endSize=14;sourcePerimeterSpacing=8;targetPerimeterSpacing=8;" edge="1" parent="1" source="Qmrg40c5jwhxQXg3GHlc-4" target="Qmrg40c5jwhxQXg3GHlc-5">
          <mxGeometry relative="1" as="geometry" />
        </mxCell>
        <mxCell id="Qmrg40c5jwhxQXg3GHlc-4" value="提测" style="rounded=1;whiteSpace=wrap;html=1;hachureGap=4;pointerEvents=0;fillColor=#fff2cc;strokeColor=#d6b656;" vertex="1" parent="1">
          <mxGeometry x="200" y="520" width="200" height="80" as="geometry" />
        </mxCell>
        <mxCell id="Qmrg40c5jwhxQXg3GHlc-12" value="" style="edgeStyle=none;curved=1;rounded=0;orthogonalLoop=1;jettySize=auto;html=1;endArrow=open;startSize=14;endSize=14;sourcePerimeterSpacing=8;targetPerimeterSpacing=8;" edge="1" parent="1" source="Qmrg40c5jwhxQXg3GHlc-5" target="Qmrg40c5jwhxQXg3GHlc-7">
          <mxGeometry relative="1" as="geometry" />
        </mxCell>
        <mxCell id="Qmrg40c5jwhxQXg3GHlc-13" style="edgeStyle=none;curved=1;rounded=0;orthogonalLoop=1;jettySize=auto;html=1;entryX=1;entryY=0.5;entryDx=0;entryDy=0;endArrow=open;startSize=14;endSize=14;sourcePerimeterSpacing=8;targetPerimeterSpacing=8;" edge="1" parent="1" source="Qmrg40c5jwhxQXg3GHlc-5" target="Qmrg40c5jwhxQXg3GHlc-6">
          <mxGeometry relative="1" as="geometry">
            <Array as="points">
              <mxPoint x="610" y="632" />
            </Array>
          </mxGeometry>
        </mxCell>
        <mxCell id="Qmrg40c5jwhxQXg3GHlc-14" value="&lt;span style=&quot;color: rgb(23 , 43 , 77) ; font-family: , , &amp;#34;segoe ui&amp;#34; , &amp;#34;roboto&amp;#34; , &amp;#34;oxygen&amp;#34; , &amp;#34;ubuntu&amp;#34; , &amp;#34;fira sans&amp;#34; , &amp;#34;droid sans&amp;#34; , &amp;#34;helvetica neue&amp;#34; , sans-serif ; font-size: 14px ; text-align: left&quot;&gt;通过率/覆盖率不理想&lt;/span&gt;" style="edgeLabel;html=1;align=center;verticalAlign=middle;resizable=0;points=[];" vertex="1" connectable="0" parent="Qmrg40c5jwhxQXg3GHlc-13">
          <mxGeometry x="0.3523" y="21" relative="1" as="geometry">
            <mxPoint x="1" as="offset" />
          </mxGeometry>
        </mxCell>
        <mxCell id="Qmrg40c5jwhxQXg3GHlc-5" value="单测把控" style="rounded=1;whiteSpace=wrap;html=1;hachureGap=4;pointerEvents=0;fillColor=#fff2cc;strokeColor=#d6b656;" vertex="1" parent="1">
          <mxGeometry x="200" y="640" width="200" height="80" as="geometry" />
        </mxCell>
        <mxCell id="Qmrg40c5jwhxQXg3GHlc-10" value="" style="edgeStyle=none;curved=1;rounded=0;orthogonalLoop=1;jettySize=auto;html=1;endArrow=open;startSize=14;endSize=14;sourcePerimeterSpacing=8;targetPerimeterSpacing=8;" edge="1" parent="1" source="Qmrg40c5jwhxQXg3GHlc-6" target="Qmrg40c5jwhxQXg3GHlc-4">
          <mxGeometry relative="1" as="geometry" />
        </mxCell>
        <mxCell id="Qmrg40c5jwhxQXg3GHlc-6" value="开发" style="rounded=1;whiteSpace=wrap;html=1;hachureGap=4;pointerEvents=0;fillColor=#fff2cc;strokeColor=#d6b656;" vertex="1" parent="1">
          <mxGeometry x="200" y="400" width="200" height="80" as="geometry" />
        </mxCell>
        <mxCell id="Qmrg40c5jwhxQXg3GHlc-7" value="测试" style="rounded=1;whiteSpace=wrap;html=1;hachureGap=4;pointerEvents=0;fillColor=#fff2cc;strokeColor=#d6b656;" vertex="1" parent="1">
          <mxGeometry x="200" y="760" width="200" height="80" as="geometry" />
        </mxCell>
      </root>
    </mxGraphModel>
  </diagram>
</mxfile>
